<svg xmlns="http://www.w3.org/2000/svg" width="79.851" height="79.929" viewBox="0 0 79.851 79.929">
  <g id="组_2076" data-name="组 2076" transform="translate(-1970.435 2955.482)">
    <path id="路径_40827" data-name="路径 40827" d="M2011.812-2955.482c1.261.134,2.524.256,3.784.4a36.862,36.862,0,0,1,10.766,2.981,39.591,39.591,0,0,1,19.771,18.852,38.531,38.531,0,0,1,3.8,12.562,38.507,38.507,0,0,1-2.731,20.473c-5.061,11.747-13.793,19.458-26.055,23.1a35.765,35.765,0,0,1-15.379,1.209c-15.855-2.286-26.808-10.943-32.811-25.786a34.979,34.979,0,0,1-2.4-11.472c-.018-.359-.083-.716-.126-1.074v-2.595c.04-.313.1-.624.118-.938a36.012,36.012,0,0,1,1.219-7.852,39.468,39.468,0,0,1,17.627-23.85,38.285,38.285,0,0,1,16.977-5.755c.856-.082,1.712-.171,2.568-.256Zm-1.458,77.826a37.838,37.838,0,0,0,37.867-37.854,37.729,37.729,0,0,0-37.819-37.872,37.727,37.727,0,0,0-37.867,37.824A37.836,37.836,0,0,0,2010.354-2877.656Z" fill="#fff"/>
    <path id="路径_40828" data-name="路径 40828" d="M2016.583-2917.385l-2.23,1.857c1.08.175,1.431.048,3.666-1.423.653.448.653.448.987-.513l-.536-.033c.941-.563.809-1.626,1.258-2.39a7.405,7.405,0,0,0,.321-.7c-.636-.068-.686-.716-.7-1.132-.018-.5-.344-.674-.579-.941a4.272,4.272,0,0,0-1.038-.915,3.761,3.761,0,0,0-1.2-.332c-.87-.151-1.746-.268-2.62-.4-.02,0-.043.014-.065.018-.945.166-1.892.318-2.832.508a3.164,3.164,0,0,0-.71.356l-.409-.708c.069.987-.428,1.083-1.059,1.2-.888.158-1.735.534-2.621.717a12.038,12.038,0,0,1-1.866.109c-.044,0-.109-.007-.129-.035-.512-.727-1.48-.405-2.1-.938a5.014,5.014,0,0,1-2-2.5,6.085,6.085,0,0,1,0-.726v-1.8a11.972,11.972,0,0,0-1.3.59c-.166.1-.377.4-.333.53.33,1-.664,1.111-1.033,1.651a2.359,2.359,0,0,0,.209-2.192.873.873,0,0,1,.092-.544,4.158,4.158,0,0,1,2.339-2.031,4.707,4.707,0,0,0,.757-.55l-.1-.376a41.3,41.3,0,0,1,3.7-2.89,39.31,39.31,0,0,1,4.169-1.982c.2.217.45.7.734.008.034-.082.215-.111.333-.149.307-.1.617-.191.926-.285l-.048-.28h-3.846l.886-.226-.386-.573c.047-.01.114-.038.126-.023a1.567,1.567,0,0,0,2.063.431c.692-.295,1.409-.53,2.282-.853-1.241-1-2.459-.587-3.681-.553l1.026-.579,1.8.44-.1-.72c.517.369.977.711,1.451,1.03a3.549,3.549,0,0,0,.7.368c.706.273,1.413.548,2.134.775.383.121.8.12,1.195.217a3.922,3.922,0,0,0,2.873-.372,1.561,1.561,0,0,1,.626-.075c.2.221.336.5.481.507.715.024,1.5.2,1.974-.583l1.208.381.012.174c-.247.031-.493.074-.741.09-1.386.089-2.777.132-4.158.274a14.051,14.051,0,0,0-2.293.51.6.6,0,0,0-.271.506c.048.445.916.949,1.373.866.675-.122,1.352-.23,2.056-.348-.488.659-.5.6-1.239.546a4,4,0,0,0-1.6.2,8.062,8.062,0,0,1-3.968-.019,1.218,1.218,0,0,0-.391-.059c-1.394.3-2.778.654-4.179.922a3.349,3.349,0,0,0-1.719,1.168,1.514,1.514,0,0,1-.74.248,1.161,1.161,0,0,0-.608.17l.478.1-.17.591c.507.072.984.114,1.449.213.542.115.454.4.2.778-.383.587-.7,1.215-1.119,1.95l.833-.162-1.146.943a5.394,5.394,0,0,1,.111-2.2,10.4,10.4,0,0,0-1.089.884c-.423.445-.77.474-1.121-.227l-.3.86.564-.093a3.026,3.026,0,0,0,.723,2.332,2.431,2.431,0,0,0,1.875.982,2.7,2.7,0,0,0,.773-.2c1.047-.349,1.038-.378,1.875-.087l-.047-.5c.027-.036.036-.064.054-.07.8-.285,1.6-.606,2.414-.836a10.227,10.227,0,0,1,1.505-.182.725.725,0,0,0,.294-.112,1.032,1.032,0,0,1,1.406-.026c.161-.122.329-.356.479-.346.7.047,1.393.16,2.088.252.488.065.984.1,1.462.209a5.091,5.091,0,0,1,1.2.434c.22.114.367.368.615.632.461-.094,1.141.424,1.471,1.25.04.1.188.157.322.263-.061.288-.254.746.488.613a.306.306,0,0,1,.236.169c.222.673.426,1.353.636,2.03a2.769,2.769,0,0,1,.236.822c-.012.342.145.733-.345,1.01-.232.131-.236.666-.357,1.066l.577.375-.966,1.264-.136-.124v.688l-.134,0-.1-.621c-.153.3-.326.484-.3.63a.678.678,0,0,1-.635.9c-.081.015-.156.153-.2.25a.78.78,0,0,0-.025.255c-.723-.08-.814.822-1.429.921a1.359,1.359,0,0,0-.709.287,4.811,4.811,0,0,1-.676.563,7.4,7.4,0,0,1-3.1.759,7.851,7.851,0,0,1-1.726-.212c-.083-.012-.2-.084-.241-.052-.719.606-1.438-.051-2.12.03-.522.061-.984-.155-1.547-.048a6.1,6.1,0,0,1-2.757-.4,1.922,1.922,0,0,0-.648-.077c-.5.009-1.005,0-1.507,0l-.034.27a3.77,3.77,0,0,0,.486.163c1.147.223,2.307.391,3.438.677.4.1.714.5,1.089.721a1.114,1.114,0,0,0,.548.13c2.094.009,4.188,0,6.281,0h.785v4.543h-3.072v16.553c7.464-1.254,13.514-4.833,17.612-11.177,6.309-9.767,5.823-19.632-.256-29.44l1.1-.721c5.19,7.878,6.584,16.278,3.283,25.079-3.938,10.5-11.849,16.225-22.969,17.872v-18.093h-.814v18.055h-3.433v-18.045l-.826-.041v18.1c-10.389-1.429-18.06-6.613-22.31-16.153-4.133-9.275-2.955-18.254,2.59-26.788l1.129.74c-5.793,9.161-6.533,18.558-1.151,28.04,4.041,7.122,10.39,11.158,18.5,12.589v-16.519h-3.085v-4.565h5l.072-.234-.741-.361a1.162,1.162,0,0,0-1.054-.467,11.17,11.17,0,0,1-2.474-.166,4.314,4.314,0,0,1-1.25-.771l.331-.574a3.6,3.6,0,0,0,1,.073c.624-.128,1.228-.352,1.84-.537-.048-.154-.047-.389-.15-.45-1.087-.655-2.247-1.2-3.273-1.941a27.064,27.064,0,0,1-2.116-2.04,7.7,7.7,0,0,0-1.709-1.266,2.88,2.88,0,0,0-1.629-.1c-.688.093-1.3.71-2,.332l-2.186,3.732a3.464,3.464,0,0,1,.072-2.67l-.9.455-.046-.087a17.345,17.345,0,0,1,1.659-2.1,4.634,4.634,0,0,1,1.67-.838,10.518,10.518,0,0,1,2.073-.5c.379-.05.789.191,1.185.192a4.971,4.971,0,0,1,3,.935c.921.662,1.889,1.259,2.817,1.913.092.066.046.328.067.528l.231-.3.853.419-.082,1.043c.811-.909,1.7-.684,2.1.257.8.1,1.546.188,2.288.292a.838.838,0,0,1,.368.167,1.29,1.29,0,0,0,1.752.019,2.724,2.724,0,0,1,2.162-.594,2.2,2.2,0,0,0,1.03-.215c.378-.13.736-.321,1.1-.485Z" fill="#fff"/>
    <path id="路径_40829" data-name="路径 40829" d="M2025.593-2912.751c-.313.171-.618.357-.939.51a2.829,2.829,0,0,0-1.674,2.858c.034,3.638.032,7.277.019,10.916a8.308,8.308,0,0,1-.205,1.819,5.825,5.825,0,0,1-5.21,4.4,11.969,11.969,0,0,1-1.649.108c2.186-.994,2.537-2.92,2.55-4.957.024-3.707.027-7.415-.061-11.12-.065-2.769,1.433-3.769,3.305-4.217,1.244-.3,2.541-.38,3.814-.559Z" fill="#fff"/>
    <path id="路径_40830" data-name="路径 40830" d="M1995-2912.84a11.777,11.777,0,0,1,4.533.533,3.573,3.573,0,0,1,2.775,3.864c-.005,3.593-.043,7.186-.044,10.779a14.449,14.449,0,0,0,.165,2.306,3.859,3.859,0,0,0,2.5,3.18c-3.181.174-6.4-1.462-6.964-4.453a9.316,9.316,0,0,1-.2-1.683c-.015-3.525-.074-7.052.032-10.573a3.335,3.335,0,0,0-2.215-3.634A6.369,6.369,0,0,1,1995-2912.84Z" fill="#fff"/>
    <path id="路径_40831" data-name="路径 40831" d="M1988.758-2939.4l.9.323a8.044,8.044,0,0,1,.721-.866c.572-.524,1.176-.311,1.359.437.162.659.356,1.311.514,1.971.188.784-.044,1-.827.923a1.2,1.2,0,0,0-.747.3,2.661,2.661,0,0,0-.436.683l-.706-1.121c-.414.765-.283,1.1.384,1.378.122.049.3.241.28.3-.055.142-.216.347-.328.344a6.72,6.72,0,0,1-1.459-.17c-.177-.046-.29-.342-.432-.524l.634-.308c.2-1.614.62-1.749-1.576-2.09.326-.694.615-1.377.971-2.023.1-.184.4-.26.6-.385.042.217.085.433.124.65C1988.752-2939.5,1988.754-2939.438,1988.758-2939.4Zm2.113-.189c-1.048.834-1.11,1.223-.363,2.04a4.034,4.034,0,0,0,.857.542C1991.62-2937.879,1990.966-2938.626,1990.871-2939.584Z" fill="#fff"/>
    <path id="路径_40832" data-name="路径 40832" d="M2006.825-2949.923c.632.118.818.489.778,1.086-.046.672-.011,1.35-.011,2.082a6.873,6.873,0,0,1,1-.145c.111,0,.221.168.332.26-.082.095-.146.229-.249.278-1.011.473-.983.466-.9,1.575.1,1.33.149,2.664.22,4l-.249.029-.523-4.939-1.153.868-.394-.369c-.964.651.222,1.666-.576,2.421l-.342-1.878-.942,1c-.054-.907.7-1.3.86-1.965-.686.285-.951,1.429-2.04,1,.833-.781,1.873-1.24,2.124-2.44l-.905.713,1.112-2.448c.761.2.77.229.284,1.38l.734.229a2.155,2.155,0,0,0-.4.5,10.186,10.186,0,0,0-.276,1.044,3.533,3.533,0,0,0,.934-.121c.665-.274,1.081-.644.834-1.535A14.689,14.689,0,0,1,2006.825-2949.923Z" fill="#fff"/>
    <path id="路径_40833" data-name="路径 40833" d="M2033.305-2937.05c.145.892-.884.534-1.084,1.1.351.364,1.067.524.8,1.429l-1.121-.617a5.6,5.6,0,0,1-.885.782c-.252.147-.721.281-.88.154a1.716,1.716,0,0,1-.617-1.028,2.668,2.668,0,0,1,.329-1.225.566.566,0,0,1,.482-.266,11.131,11.131,0,0,1,1.27.534l.766-.994.132.141-.243-.709.134-.146,2.641,1.207.085-.189a4.951,4.951,0,0,0-2.5-1.454c-.9-.254-1.849-.349-2.776-.594.525,0,1.052-.031,1.574.006a7.768,7.768,0,0,1,4.133,2.068.889.889,0,0,1,.294.368,2.328,2.328,0,0,1,.071.553c-.166,0-.362.064-.494,0C2034.726-2936.275,2034.049-2936.652,2033.305-2937.05Zm-2.976,1.216-.2.124.335.914.85-.59-.109-.218Z" fill="#fff"/>
    <path id="路径_40834" data-name="路径 40834" d="M2025.751-2941.148a8.134,8.134,0,0,1,.83,1.142c.089.185-.043.477-.076.721-.216-.093-.544-.13-.625-.291a6.606,6.606,0,0,1-.36-1.2c-2.011.534-1.823.482-2.373-.487l1.92-.528-.2-1.424c1.266.293,1.794-.334,2.037-1.375.036-.156.266-.267.4-.4.649.614.653.732.108,1.679.642.84.525,1.046-.474,1.334A4.409,4.409,0,0,0,2025.751-2941.148Z" fill="#fff"/>
    <path id="路径_40835" data-name="路径 40835" d="M2020.595-2942.2a2.7,2.7,0,0,1-3.045-1.045c-.191-.244-.376-.444-.732-.218-.52.329-.836.089-1.008-.391l.967-.289-.626-1.246.167-.111.8.911.559-.877c-.681.31-.935.185-.824-.351s.485-1.026-.323-1.468c1.407-.351.916-1.59,1.531-2.33.134.177.343.329.359.5.033.357-.065.731.4.9a1.288,1.288,0,0,1-.162.54c-.343.457-.727.883-1.115,1.344.9.5.918.569.47,1.425-.533,1.016-.477,1.19.577,1.722C2019.228-2942.859,2019.872-2942.55,2020.595-2942.2Z" fill="#fff"/>
    <path id="路径_40836" data-name="路径 40836" d="M1995.326-2944c.729-.764-.4-1.367-.269-2.259l1.67.664-.136,2.055a5.948,5.948,0,0,0,.531-.4,1.213,1.213,0,0,1,1.457-.419,1.608,1.608,0,0,1,.98,1.368,8.988,8.988,0,0,0,.116.944c.232,1.107-.119,1.295-1.236,1.374-.014-.041-.052-.11-.039-.12.848-.7.511-1.545.235-2.344-.094-.271-.4-.47-.6-.7-.28.293-.566.581-.835.885-.045.051-.017.168-.04.516Z" fill="#fff"/>
    <path id="路径_40837" data-name="路径 40837" d="M2014.809-2942.348c-.737-.535-1.1-1.866-2.257-.746-.272-.473-.243-.723.236-.945a12.031,12.031,0,0,0,1.571-.935c.487-.324.626-.707.093-1.144a3.628,3.628,0,0,1-.433-.559c1.489-.209,1.154-1.4,1.563-2.378l.825,1.518C2015.048-2946.145,2015.287-2944.181,2014.809-2942.348Z" fill="#fff"/>
    <path id="路径_40838" data-name="路径 40838" d="M1979.656-2914.684l.029.523-2.671.725.012.221c.854.245,1.668.744,2.658.3v.661c-.971-.257-1.937-.5-2.891-.778-.184-.054-.467-.291-.448-.4a.857.857,0,0,1,.413-.521c.406-.22.851-.369,1.4-.6-.589-.18-1.047-.288-1.475-.468a.717.717,0,0,1-.379-.466c-.017-.108.218-.331.378-.384.941-.308,1.894-.581,2.885-.879v.793l-2.58.608,0,.314Z" fill="#fff"/>
    <path id="路径_40839" data-name="路径 40839" d="M1978.341-2918.069l1.4.067-.036.806-3.244-.317v-.808l1.689.279.142-1.6h-1.7l.084-.9,3.293.319-.084.791-1.351-.2Z" fill="#fff"/>
    <path id="路径_40840" data-name="路径 40840" d="M2039.3-2896.562l-2.788-1.815c.264-.389.6-.956,1.005-1.46a1.522,1.522,0,0,1,2.179-.281,1.539,1.539,0,0,1,.535,2.076,3.9,3.9,0,0,1-.233.413C2039.754-2897.249,2039.505-2896.874,2039.3-2896.562Zm-.981-3.2c-.068,0-.155-.028-.2,0-.3.211-.595.434-.891.653a3.718,3.718,0,0,0,.541.671,12.839,12.839,0,0,0,1.24.818c.53.325.817.187.945-.436A1.554,1.554,0,0,0,2038.319-2899.764Z" fill="#fff"/>
    <path id="路径_40841" data-name="路径 40841" d="M2042.893-2913.373h-1.3l.057-.839,3.322.264-.091.791-1.651-.2-.171,1.595h1.709l-.056.846-3.234-.264V-2912l1.414.249Z" fill="#fff"/>
    <path id="路径_40842" data-name="路径 40842" d="M1991.482-2886.894a11.485,11.485,0,0,0,.341-1.35c.018-.136-.171-.359-.32-.435-.093-.047-.338.067-.427.178a9.138,9.138,0,0,0-.56.89l-.669-.483,1.975-2.668a12.9,12.9,0,0,1,1.4,1.053,1.38,1.38,0,0,1,.439.955c-.043.5-.523.542-.957.518a.708.708,0,0,0-.2.051l-.252,1.819Zm-.089-2.171c.79.522,1.277.536,1.548.115a.607.607,0,0,0-.294-.952C1991.815-2890.276,1991.9-2889.308,1991.393-2889.065Z" fill="#fff"/>
    <path id="路径_40843" data-name="路径 40843" d="M1979.18-2928.891a1.9,1.9,0,0,1,1.728-1.862,1.841,1.841,0,0,1,1.792,1.713,1.985,1.985,0,0,1-1.826,1.939A1.77,1.77,0,0,1,1979.18-2928.891Zm1.3-1.194a.92.92,0,0,0-1.032.92c.016.658,1.062,1.418,1.937,1.408a.949.949,0,0,0,1-.9C1982.389-2929.339,1981.4-2930.079,1980.479-2930.085Z" fill="#fff"/>
    <path id="路径_40844" data-name="路径 40844" d="M2043.223-2925.83a1.7,1.7,0,0,1-1.724,1.724,1.821,1.821,0,0,1-1.727-1.907,1.706,1.706,0,0,1,1.715-1.733A1.884,1.884,0,0,1,2043.223-2925.83Zm-1.253-1.428a9.235,9.235,0,0,0-1.655.911.855.855,0,0,0,.44,1.507,1.826,1.826,0,0,0,1.794-.553,1.306,1.306,0,0,0,.326-1.055C2042.788-2926.75,2042.338-2926.949,2041.97-2927.258Z" fill="#fff"/>
    <path id="路径_40845" data-name="路径 40845" d="M2043.047-2921.635a1.806,1.806,0,0,1,1.783,1.848,1.712,1.712,0,0,1-1.735,1.725,1.774,1.774,0,0,1-1.775-1.844A1.72,1.72,0,0,1,2043.047-2921.635Zm.2.639a4.212,4.212,0,0,0-1.177.462,1.238,1.238,0,0,0-.438.945,1.1,1.1,0,0,0,.7.685,2.678,2.678,0,0,0,1.259-.01,1.1,1.1,0,0,0,.993-1.175C2044.495-2920.607,2043.976-2920.936,2043.243-2921Z" fill="#fff"/>
    <path id="路径_40846" data-name="路径 40846" d="M2008.69-2882.891a1.688,1.688,0,0,1-1.756,1.753,1.671,1.671,0,0,1-1.814-1.685,1.717,1.717,0,0,1,1.749-1.768A1.737,1.737,0,0,1,2008.69-2882.891Zm-2.983.04.141.084c.035.224,0,.5.122.659.231.3.537.71.839.734s.651-.348.925-.6c.128-.118.141-.373.18-.571a1.52,1.52,0,0,0-.447-1.608c-.217-.166-.786-.223-.922-.077A7.3,7.3,0,0,0,2005.707-2882.851Z" fill="#fff"/>
    <path id="路径_40847" data-name="路径 40847" d="M2044.968-2915.4v.526a7.775,7.775,0,0,0-3.254-.07c-.2-.555.1-.984.664-1.333.491-.305.952-.659,1.506-1.047h-2.135v-.441l3.22.167.13.168c-.743.8-1.776,1.262-2.659,2.03Z" fill="#fff"/>
    <path id="路径_40848" data-name="路径 40848" d="M2038.716-2895.506h-3.255l-.074.25,2.039,1.387-.165.254-2.719-1.905c.1-.409.5-.62,1.1-.6.648.025,1.3,0,1.945,0l.054-.2-1.725-1.1.224-.329,2.612,1.992Z" fill="#fff"/>
    <path id="路径_40849" data-name="路径 40849" d="M1985.491-2897.1l.193.294-2.907,1.942c.059-1.324.773-2.3.979-3.561l-2.123,1.524-.179-.249,2.725-1.9c.455.335.356.884.119,1.472a7.279,7.279,0,0,0-.49,1.742Z" fill="#fff"/>
    <path id="路径_40850" data-name="路径 40850" d="M2023.73-2887.282c1.208-.828,1.953.738,3.142.79l-1-1.843.307-.16,1.423,2.967-.118.169c-1.088-.267-1.983-1.017-3.2-1.471.521.84.67,1.7,1.419,2.267l-.417.213Z" fill="#fff"/>
    <path id="路径_40851" data-name="路径 40851" d="M2039.912-2929.707l-.554-1.153c.361-.193.652-.36.955-.5a.43.43,0,0,1,.31-.007,2.42,2.42,0,0,1,1.1,2,1.553,1.553,0,0,1-1.168,1.492,1.549,1.549,0,0,1-1.691-.383,1.926,1.926,0,0,1-.676-1.7c.019-.153.247-.281.373-.413a5.491,5.491,0,0,0,.029,1.329c.061.224.39.438.644.537a1.713,1.713,0,0,0,2.079-1.072,1.215,1.215,0,0,0-.268-.952c-.13-.143-.618-.113-.831.022C2040.033-2930.4,2040.019-2930.027,2039.912-2929.707Z" fill="#fff"/>
    <path id="路径_40852" data-name="路径 40852" d="M1996.1-2887.254a6.46,6.46,0,0,0-.816-1.011.67.67,0,0,0-.642.123.736.736,0,0,0,.032.648,3.988,3.988,0,0,0,.577.665.9.9,0,0,1-.511,1.588,1.579,1.579,0,0,1-1.791-1.855,2.927,2.927,0,0,0,.238.667,3.069,3.069,0,0,0,.744.811.736.736,0,0,0,.7-.162c.108-.137.031-.512-.085-.711-.168-.287-.476-.488-.672-.763a.824.824,0,0,1,.4-1.324,1.723,1.723,0,0,1,1.915.9C1996.235-2887.536,1996.132-2887.365,1996.1-2887.254Z" fill="#fff"/>
    <path id="路径_40853" data-name="路径 40853" d="M1982.893-2930.519c.384-.253.758-.387.932-.652.128-.2-.005-.564-.022-.854a2.367,2.367,0,0,0-.769.167,4.078,4.078,0,0,0-.608.635.878.878,0,0,1-1.524-.328,1.831,1.831,0,0,1,1.122-2.183c.1-.021.225.061.522.152a3,3,0,0,0-.543.23,2.521,2.521,0,0,0-.766.691c-.108.213.055.563.1.851a2.7,2.7,0,0,0,.814-.215c.258-.165.419-.475.656-.683a.811.811,0,0,1,1.248.119,1.666,1.666,0,0,1-.648,2.172C1983.264-2930.373,1983.079-2930.478,1982.893-2930.519Z" fill="#fff"/>
    <path id="路径_40854" data-name="路径 40854" d="M1977.547-2908.462a7.651,7.651,0,0,0,.032,1.512c.04.187.439.3.674.444a2.942,2.942,0,0,0,.369-.706,5.015,5.015,0,0,0,0-.884.844.844,0,0,1,1.268-.8,1.763,1.763,0,0,1,.759,1.889c-.062.13-.252.2-.481.219.1-.231.323-.49.277-.687-.076-.324-.262-.782-.513-.872-.49-.175-.565.307-.594.674-.018.222.106.468.052.673-.088.328-.192.758-.436.911a1.243,1.243,0,0,1-1-.017,1.762,1.762,0,0,1-.7-2.02A1.189,1.189,0,0,1,1977.547-2908.462Z" fill="#fff"/>
    <path id="路径_40855" data-name="路径 40855" d="M2013.669-2882.023c.14.12.264.306.425.347a3.511,3.511,0,0,0,1.149.147c.147-.012.352-.348.367-.548.011-.146-.218-.38-.391-.454-.264-.112-.614-.048-.852-.187-.32-.188-.782-.488-.794-.758a1.249,1.249,0,0,1,.6-.988,3.148,3.148,0,0,1,1.449-.073c.127.01.229.309.349.484a6.683,6.683,0,0,0-1.253-.381c-.156-.016-.454.263-.487.444-.028.153.194.44.373.524a5.279,5.279,0,0,0,.98.244.893.893,0,0,1,.555,1.426,1.8,1.8,0,0,1-2.43.249,1.252,1.252,0,0,1-.166-.377Z" fill="#fff"/>
    <path id="路径_40856" data-name="路径 40856" d="M2030.687-2889.562c.431.382.83.977,1.1.924.431-.083.778-.6,1.177-.952.237.23.238.233-.1.537-.068.061-.141.115-.214.169l-1.445,1.073-1.962-2.62c.961-1.006,1.775-1.444,2.031-1.186a6.671,6.671,0,0,0-1.176.916c-.077.088.3.572.517.947l1.025-.854.228.266Z" fill="#fff"/>
    <path id="路径_40857" data-name="路径 40857" d="M2024.548-2884.38c-.1.192-.163.479-.323.559-.664.328-1.358.595-1.946.844l-1.3-3.01c1.355-.81,2.057-1,2.253-.658a6.052,6.052,0,0,0-1.34.573c-.1.073.138.629.246,1.065l1.23-.571.166.324-1.347.451c.317.462.579,1.146.828,1.141A4.414,4.414,0,0,0,2024.548-2884.38Z" fill="#fff"/>
    <path id="路径_40858" data-name="路径 40858" d="M2041.647-2905.748l.341-1.277.346.069-.482,1.331c.568.046,1.26.271,1.4.08a4.288,4.288,0,0,0,.4-1.579c.07.175.264.411.224.6-.134.616-.35,1.215-.539,1.818a.683.683,0,0,1-.077.171l-3.156-.97c.176-.567.368-1.254.61-1.921.051-.138.291-.207.4-.28a6.266,6.266,0,0,0-.433,1.464C2040.68-2906.11,2041.257-2905.941,2041.647-2905.748Z" fill="#fff"/>
    <path id="路径_40859" data-name="路径 40859" d="M1989.2-2891.092l1.1.821-.232.3-.776-.953-.277.062c-.218.409-.677.875-.6,1.214a1.1,1.1,0,0,0,1.335.684l-.005.23c-.224.01-.52.118-.66.014-.6-.441-1.145-.944-1.621-1.347l2.125-2.486c1.056.576,1.778,1.392,1.589,1.7a5.652,5.652,0,0,0-1.1-.942C1989.955-2891.854,1989.56-2891.39,1989.2-2891.092Z" fill="#fff"/>
    <path id="路径_40860" data-name="路径 40860" d="M1977.181-2908.878c-.11-.114-.374-.257-.406-.441-.119-.687-.162-1.387-.226-2.012l3.222-.42c.373,1.3.345,2.3.014,2.365a6.8,6.8,0,0,0-.2-1.475c-.036-.1-.648-.015-.947-.015-.252.482.263.982-.109,1.439-.181-.544-.213-1.075-.494-1.323-.165-.145-1.034.119-1.055.271A5.972,5.972,0,0,0,1977.181-2908.878Z" fill="#fff"/>
    <path id="路径_40861" data-name="路径 40861" d="M1982.424-2902.3l.367.7c-.747.4-1.471.746-2.152,1.165a.738.738,0,0,0-.258,1.072c.24.425.58.66,1.068.433.7-.328,1.4-.686,2.158-1.065l.2.35a5.392,5.392,0,0,0-.716.2c-.351.158-.683.359-1.03.529-.98.482-1.538.323-1.974-.551s-.252-1.389.718-1.926C1981.328-2901.683,1981.85-2901.979,1982.424-2902.3Z" fill="#fff"/>
    <path id="路径_40862" data-name="路径 40862" d="M1980.927-2924.063l-.085.259c-.641-.215-1.247-.414-1.85-.62a1.284,1.284,0,0,1-.828-2.062,1.1,1.1,0,0,1,1.4-.647c.686.2,1.381.366,2.115.559l-.215.77a22.407,22.407,0,0,0-2.429-.681,1.021,1.021,0,0,0-.795.55c-.1.254.005.839.191.929A24.885,24.885,0,0,0,1980.927-2924.063Z" fill="#fff"/>
    <path id="路径_40863" data-name="路径 40863" d="M2035.1-2891.021l-.389.355c-.459-.945-.909-1.828-1.313-2.732a2.257,2.257,0,0,1-.054-.752,2.694,2.694,0,0,1,.694.036c.94.3,1.869.631,2.863.972l-.526.606c-.435-.135-.877-.43-1.148-.316a1.685,1.685,0,0,0-.788.967C2034.38-2891.717,2034.807-2891.384,2035.1-2891.021Zm-1.611-2.635.756,1.5.812-.977Z" fill="#fff"/>
    <path id="路径_40864" data-name="路径 40864" d="M1986.254-2892c.873-.4,1.93-.443,2.514-1.489l.5.542c-1.073.439-2.031.864-3.014,1.221-.572.207-.862-.078-.646-.651.366-.971.815-1.91,1.3-3.017l.57.909C1986.657-2893.992,1986.581-2892.938,1986.254-2892Z" fill="#fff"/>
    <path id="路径_40865" data-name="路径 40865" d="M2043.9-2910.443a1.768,1.768,0,0,1,.151,2.411,1.609,1.609,0,0,1-2.2.328,1.923,1.923,0,0,1-.64-2.413c.195-.4.439-.753.933-.484a6.633,6.633,0,0,0-.843.96.909.909,0,0,0,.079.708,1.859,1.859,0,0,0,2.177.638C2044.246-2908.583,2044.341-2909.09,2043.9-2910.443Z" fill="#fff"/>
    <path id="路径_40866" data-name="路径 40866" d="M2030.41-2888.1a1.638,1.638,0,0,1-1.493,1.739,1.554,1.554,0,0,1-1.841-1.212,1.887,1.887,0,0,1,1.087-2.17c.667-.3.9-.243,1.232.3a2.813,2.813,0,0,0-1.135-.068,1.4,1.4,0,0,0-.68.825,1.88,1.88,0,0,0,1.166,1.878C2029.421-2886.6,2029.879-2886.931,2030.41-2888.1Z" fill="#fff"/>
    <path id="路径_40867" data-name="路径 40867" d="M2001.943-2883.738c1.026-.494,1.279-.766,1.3-1.376l.646.214c-.809.865-2.251,1.169-2.067,2.788l-1.031-.326c1.086-1.16.179-2.277-.006-3.483l1.074.33-.18.081Z" fill="#fff"/>
    <path id="路径_40868" data-name="路径 40868" d="M2019.754-2882.888a1.636,1.636,0,0,1-2.027,1.06,1.631,1.631,0,0,1-1.255-1.9,2,2,0,0,1,2.052-1.544c.6.054.726.186.719.768-.859-.621-1.349-.676-1.765-.2a1.873,1.873,0,0,0,.26,2.359C2018.264-2881.877,2018.836-2882.014,2019.754-2882.888Z" fill="#fff"/>
    <path id="路径_40869" data-name="路径 40869" d="M2009.111-2884.252c1.3-.171,2.341.042,2.393.384a4.414,4.414,0,0,0-1.4-.061c-.162.042-.172.674-.272,1.133h1.342l.015.23c-.16.016-.321.042-.482.047-.242.008-.486,0-.759,0v1.593l-.837-.039Z" fill="#fff"/>
    <path id="路径_40870" data-name="路径 40870" d="M1997.689-2886.849c.215-.031.457-.142.64-.08,2.116.72,2.148.749,2.052,1.36l-.873-.779-1.172,2.969-.721-.265c.361-.864.729-1.7,1.041-2.548.039-.105-.186-.385-.346-.462s-.387.007-.584.021Z" fill="#fff"/>
    <path id="路径_40871" data-name="路径 40871" d="M1977.139-2922.275l.16-.777c.926.2,1.817.416,2.717.576.1.018.346-.239.37-.393a1.577,1.577,0,0,0-.164-.607l.19-.086c.085.2.259.413.241.606-.144,1.617-.423,2.258-1,2.261.12-.144.214-.251.3-.363.3-.381.288-.649-.26-.746C1978.859-2921.95,1978.027-2922.111,1977.139-2922.275Z" fill="#fff"/>
    <path id="路径_40872" data-name="路径 40872" d="M2037.739-2930.307l-.454-.757,1.08-1.708h-1.92l-.033.179-.307-.526c1.175-.121,2.483.587,3.393-.738l.547.935C2038.46-2932.749,2038.405-2931.314,2037.739-2930.307Z" fill="#fff"/>
    <path id="路径_40873" data-name="路径 40873" d="M1978.282-2903.779l-.236-.749,3.05-.955-.689-.893.073-.131c.168.114.426.191.489.348a16.113,16.113,0,0,1,.644,1.922c.049.183-.1.42-.165.632l-.217-.063c.034-.125.076-.249.1-.375.109-.551-.083-.748-.606-.58C1979.929-2904.367,1979.142-2904.078,1978.282-2903.779Z" fill="#fff"/>
    <path id="路径_40874" data-name="路径 40874" d="M2040.408-2904.824l-.76.807,2.959,1.25-.292.682c-.889-.382-1.724-.758-2.579-1.083-.1-.039-.381.172-.443.322s.034.383.061.579l-.167.078c-.068-.181-.237-.4-.187-.537a17.942,17.942,0,0,1,.823-1.936c.081-.162.356-.227.541-.337Z" fill="#fff"/>
    <path id="路径_40875" data-name="路径 40875" d="M2041-2921.6l-.19-.756c.9-.179,1.8-.326,2.668-.559.145-.039.305-.478.255-.683-.071-.3-.327-.553-.472-.95.183.121.48.207.529.368.191.641.306,1.3.429,1.871Z" fill="#fff"/>
    <path id="路径_40876" data-name="路径 40876" d="M1995.776-2941.155c.672-.465.116-1.019-.07-1.614l1.333.5c-.061.27-.379.733.246.693l.232,1.586-1.39.081.525-.857Z" fill="#fff"/>
    <path id="路径_40877" data-name="路径 40877" d="M1986.158-2896.251l.475.549-2.483,2.19-.515-.58Z" fill="#fff"/>
    <path id="路径_40878" data-name="路径 40878" d="M2020.582-2882.382l-1.042-3.132.73-.254,1.015,3.165Z" fill="#fff"/>
    <path id="路径_40879" data-name="路径 40879" d="M1995.423-2884.636l1.381-3.012.675.3-1.385,3.014Z" fill="#fff"/>
    <path id="路径_40880" data-name="路径 40880" d="M2032.836-2938.765a11.406,11.406,0,0,1,.427-1.265c.052-.111.322-.122.491-.178a1.876,1.876,0,0,1,.106.6,5.023,5.023,0,0,1-.338.889c.327-.11.6-.139.614-.215.146-.818.627-.7,1.163-.451C2034.485-2938.561,2034.485-2938.561,2032.836-2938.765Z" fill="#fff"/>
    <path id="路径_40881" data-name="路径 40881" d="M2016.6-2917.371l1.051-1.854.617.13c-.479.405-.85.826-.368,1.312l-1.313.4Z" fill="#fff"/>
    <path id="路径_40882" data-name="路径 40882" d="M2008.258-2929.8c-.427.562-.745,1.215-1.431,1.268a2.77,2.77,0,0,1,.452-.957C2007.5-2929.7,2007.748-2930.332,2008.258-2929.8Z" fill="#fff"/>
    <path id="路径_40883" data-name="路径 40883" d="M2035.173-2938.67a5.24,5.24,0,0,1,.923-.52c.14-.045.384.1.518.221a.443.443,0,0,1,.057.421c-.05.089-.267.134-.4.115C2035.925-2938.482,2035.585-2938.577,2035.173-2938.67Z" fill="#fff"/>
    <path id="路径_40884" data-name="路径 40884" d="M1995.357-2924.464a7.112,7.112,0,0,0,.865-.143,5.007,5.007,0,0,0,.711-.326l-.478.8-1.139-.087Z" fill="#fff"/>
    <path id="路径_40885" data-name="路径 40885" d="M2006.886-2947.929l-.642.276-.239-.88.956.4Z" fill="#fff"/>
  </g>
</svg>
